ffmpeg version 6.0 Copyright (c) 2000-2023 the FFmpeg developers
  built with clang version 16.0.4
  configuration: --prefix=/d/bld/ffmpeg_1685720330394/_h_env/Library --cc=clang.exe --cxx=clang++.exe --nm=llvm-nm --ar=llvm-ar --disable-doc --disable-openssl --enable-demuxer=dash --enable-hardcoded-tables --enable-libfreetype --enable-libfontconfig --enable-libopenh264 --enable-libdav1d --ld=lld-link --target-os=win64 --enable-cross-compile --toolchain=msvc --host-cc=clang.exe --extra-libs=ucrt.lib --extra-libs=vcruntime.lib --extra-libs=oldnames.lib --strip=llvm-strip --disable-stripping --host-extralibs= --enable-gpl --enable-libx264 --enable-libx265 --enable-libaom --enable-libsvtav1 --enable-libxml2 --enable-pic --enable-shared --disable-static --enable-version3 --enable-zlib --enable-libopus --pkg-config=/d/bld/ffmpeg_1685720330394/_build_env/Library/bin/pkg-config
  libavutil      58.  2.100 / 58.  2.100
  libavcodec     60.  3.100 / 60.  3.100
  libavformat    60.  3.100 / 60.  3.100
  libavdevice    60.  1.100 / 60.  1.100
  libavfilter     9.  3.100 /  9.  3.100
  libswscale      7.  1.100 /  7.  1.100
  libswresample   4. 10.100 /  4. 10.100
  libpostproc    57.  1.100 / 57.  1.100
Input #0, rawvideo, from 'fd:':
  Duration: N/A, bitrate: 452984 kb/s
  Stream #0:0: Video: rawvideo (RGB[24] / 0x18424752), rgb24, 1024x768, 452984 kb/s, 24 tbr, 24 tbn
Input #1, mov,mp4,m4a,3gp,3g2,mj2, from '少年歌行第一章TEMP_MPY_wvf_snd.mp4':
  Metadata:
    major_brand     : isom
    minor_version   : 512
    compatible_brands: isomiso2mp41
    encoder         : Lavf60.3.100
  Duration: 00:02:41.71, start: 0.000000, bitrate: 117 kb/s
  Stream #1:0[0x1](und): Audio: aac (LC) (mp4a / 0x6134706D), 44100 Hz, stereo, fltp, 116 kb/s (default)
    Metadata:
      handler_name    : SoundHandler
      vendor_id       : [0][0][0][0]
Stream mapping:
  Stream #0:0 -> #0:0 (rawvideo (native) -> h264 (libx264))
  Stream #1:0 -> #0:1 (copy)
[libx264 @ 000001D3DCE3E540] using cpu capabilities: MMX2 SSE2Fast SSSE3 SSE4.2 AVX FMA3 BMI2 AVX2
[libx264 @ 000001D3DCE3E540] profile High, level 3.1, 4:2:0, 8-bit
[libx264 @ 000001D3DCE3E540] 264 - core 164 r3095 baee400 - H.264/MPEG-4 AVC codec - Copyleft 2003-2022 - http://www.videolan.org/x264.html - options: cabac=1 ref=3 deblock=1:0:0 analyse=0x3:0x113 me=hex subme=7 psy=1 psy_rd=1.00:0.00 mixed_ref=1 me_range=16 chroma_me=1 trellis=1 8x8dct=1 cqm=0 deadzone=21,11 fast_pskip=1 chroma_qp_offset=-2 threads=24 lookahead_threads=4 sliced_threads=0 nr=0 decimate=1 interlaced=0 bluray_compat=0 constrained_intra=0 bframes=3 b_pyramid=2 b_adapt=1 b_bias=0 direct=1 weightb=1 open_gop=0 weightp=2 keyint=250 keyint_min=24 scenecut=40 intra_refresh=0 rc_lookahead=40 rc=crf mbtree=1 crf=23.0 qcomp=0.60 qpmin=0 qpmax=69 qpstep=4 ip_ratio=1.40 aq=1:1.00
Output #0, mp4, to 'data/data_vedio/少年歌行第一章/少年歌行第一章.mp4':
  Metadata:
    encoder         : Lavf60.3.100
  Stream #0:0: Video: h264 (avc1 / 0x31637661), yuv420p, 1024x768, q=2-31, 24 fps, 12288 tbn
    Metadata:
      encoder         : Lavc60.3.100 libx264
    Side data:
      cpb: bitrate max/min/avg: 0/0/0 buffer size: 0 vbv_delay: N/A
  Stream #0:1(und): Audio: aac (LC) (mp4a / 0x6134706D), 44100 Hz, stereo, fltp, 116 kb/s (default)
    Metadata:
      handler_name    : SoundHandler
      vendor_id       : [0][0][0][0]
frame=    0 fps=0.0 q=0.0 size=       0kB time=-577014:32:22.77 bitrate=  -0.0kbits/s speed=N/A    frame=    0 fps=0.0 q=0.0 Lsize=    2329kB time=00:02:41.70 bitrate= 118.0kbits/s speed=5.33e+03x    
video:0kB audio:2301kB subtitle:0kB other streams:0kB global headers:0kB muxing overhead: 1.219292%
